<svg xmlns="http://www.w3.org/2000/svg" version="1.1" xmlns:xlink="http://www.w3.org/1999/xlink"
    xmlns:svgjs="http://svgjs.com/svgjs" width="1920" height="1080" preserveAspectRatio="none" viewBox="0 0 1920 1080">
    <g mask='url("#SvgjsMask1086")' fill="none">
        <rect width="1920" height="1080" x="0" y="0" fill="#191926"></rect>
        <path
            d="M0,943.293C171.329,971.043,316.861,804.587,435.911,678.29C537.645,570.364,574.613,424.551,621.587,283.869C663.721,157.684,686.884,32.693,695.799,-100.041C706.963,-266.255,787.019,-461.565,680.244,-589.435C573.811,-716.895,368.324,-677.891,202.749,-690.499C68.121,-700.75,-67.169,-705.896,-192.588,-655.896C-311.048,-608.67,-391.296,-507.314,-481.89,-417.56C-580.417,-319.947,-725.104,-244.365,-746.316,-107.304C-767.536,29.814,-659.191,149.426,-588.074,268.564C-524.155,375.643,-435.655,456.385,-353.718,550.395C-235.54,685.987,-177.55,914.535,0,943.293"
            fill="#FE8C52"></path>
        <path
            d="M1920 1884.3429999999998C2067.383 1897.297 2171.199 1742.54 2285.121 1648.1399999999999 2385.791 1564.721 2500.6639999999998 1488.495 2545.791 1365.789 2589.647 1246.54 2549.017 1117.831 2526.115 992.854 2504.081 872.612 2488.0209999999997 749.136 2414.846 651.213 2338.64 549.233 2225.672 486.86800000000005 2109.35 435.134 1978.505 376.94100000000003 1832.987 278.453 1700.858 333.669 1566.95 389.62800000000004 1555.775 574.8430000000001 1479.531 698.332 1417.857 798.222 1333.092 878.9970000000001 1295.499 990.21 1251.882 1119.244 1185.6689999999999 1265.71 1246.556 1387.551 1307.504 1509.513 1484.204 1506.4470000000001 1593.923 1587.386 1714.673 1676.462 1770.526 1871.205 1920 1884.3429999999998"
            fill="#FE9661"></path>
    </g>
    <defs>
        <mask id="SvgjsMask1086">
            <rect width="1920" height="1080" fill="#ffffff"></rect>
        </mask>
    </defs>
</svg>